<svg xmlns="http://www.w3.org/2000/svg" width="100" height="100" viewBox="0 0 26.458 26.458"><g style="line-height:1.25;-inkscape-font-specification:Roboto"><path d="M7.673 4.767q.505-.441 1.092-.826.6-.384 1.283-.669.683-.299 1.461-.455.792-.171 1.707-.171 1.283 0 2.307.356 1.037.356 1.76 1.025.724.654 1.107 1.594.395.925.395 2.064 0 1.096-.286 1.879-.287.783-.737 1.366-.437.584-.97 1.011-.518.413-.996.783-.464.37-.82.726-.34.356-.423.797l-.382 1.993h-2.894l-.3-2.292-.028-.17v-.172q0-.626.287-1.096.287-.47.724-.854.436-.398.942-.754.505-.37.941-.783.437-.427.724-.94.287-.526.287-1.238 0-.854-.546-1.352-.533-.513-1.475-.513-.723 0-1.215.157-.478.157-.832.356-.342.185-.601.341-.26.157-.519.157-.587 0-.874-.527zm2.512 16.611q0-.512.177-.953.191-.442.505-.769.328-.327.765-.512.437-.2.956-.2.505 0 .942.2.436.185.764.512t.505.769q.191.441.191.953 0 .513-.19.968-.178.442-.506.769t-.764.512q-.437.186-.942.186-.52 0-.956-.186-.437-.185-.765-.512-.314-.327-.505-.769-.177-.455-.177-.968z" style="-inkscape-font-specification:'Lato Heavy'" font-weight="900" font-family="Lato" aria-label="?" font-size="27.88" letter-spacing="0" word-spacing="0" stroke-width=".697"/></g></svg>